<svg width="542" height="92" viewBox="0 0 542 92" fill="none" xmlns="http://www.w3.org/2000/svg">
<path d="M115.415 38.79H110.427V59H103.074V38.79H97.785L98.215 32.297H115.845L115.415 38.79ZM140.276 38.403L137.653 59H129.784L128.107 50.314H127.806L126.172 59H118.475L115.852 38.403H122.474L123.377 48.809H123.721L125.183 38.403H131.16L132.579 48.809H132.966L133.912 38.403H140.276ZM149.053 59H141.958V38.618H149.053V59ZM142.517 36.984C141.915 36.468 141.614 35.6367 141.614 34.49C141.614 33.3433 141.915 32.4977 142.517 31.953C143.119 31.4083 144.108 31.136 145.484 31.136C146.86 31.136 147.849 31.4083 148.451 31.953C149.053 32.4977 149.354 33.3433 149.354 34.49C149.354 35.608 149.053 36.4393 148.451 36.984C147.849 37.5 146.86 37.758 145.484 37.758C144.108 37.758 143.119 37.5 142.517 36.984ZM163.39 59.043C161.269 59.301 159.42 59.43 157.843 59.43C156.295 59.43 155.077 59.0287 154.188 58.226C153.328 57.3947 152.898 55.9757 152.898 53.969V43.993H150.834V38.661H153.242L153.629 34.705H160.122V38.661H163.949L163.648 43.993H160.079V52.55C160.079 53.152 160.366 53.453 160.939 53.453C160.997 53.453 161.885 53.41 163.605 53.324L163.39 59.043ZM174.415 44.165C173.583 44.165 173.024 44.552 172.738 45.326C172.451 46.0713 172.308 47.2467 172.308 48.852C172.308 50.4573 172.437 51.6183 172.695 52.335C172.981 53.0517 173.555 53.41 174.415 53.41C175.303 53.41 176.45 53.2523 177.855 52.937L178.629 58.441C176.651 59.1003 174.888 59.43 173.34 59.43C170.616 59.43 168.552 58.5127 167.148 56.678C165.772 54.8433 165.084 52.2777 165.084 48.981C165.084 45.6843 165.8 43.0183 167.234 40.983C168.667 38.919 170.745 37.887 173.469 37.887C175.504 37.887 177.339 38.231 178.973 38.919L178.199 45.24C176.536 44.5233 175.275 44.165 174.415 44.165ZM187.604 39.908C189.181 38.5607 190.886 37.887 192.721 37.887C194.556 37.887 195.846 38.3313 196.591 39.22C197.365 40.08 197.752 41.3843 197.752 43.133V59H190.442V45.584C190.442 44.8673 190.127 44.509 189.496 44.509C188.693 44.509 188.02 44.7097 187.475 45.111V59H180.251V31.437H187.432V39.908H187.604ZM229.433 59H222.381L216.834 46.573H216.49V59H209.954V32.297H217.221L222.51 45.111H222.854V32.297H229.433V59ZM232.271 48.637C232.271 44.853 232.988 42.1153 234.421 40.424C235.883 38.7327 238.148 37.887 241.215 37.887C244.311 37.887 246.562 38.7183 247.966 40.381C249.371 42.0437 250.073 44.7813 250.073 48.594C250.073 52.378 249.385 55.13 248.009 56.85C246.633 58.57 244.383 59.43 241.258 59.43C238.134 59.43 235.855 58.57 234.421 56.85C232.988 55.13 232.271 52.3923 232.271 48.637ZM242.591 44.552C242.419 43.9787 241.961 43.692 241.215 43.692C240.47 43.692 239.997 43.9787 239.796 44.552C239.596 45.1253 239.495 46.3293 239.495 48.164V49.196C239.495 51.2313 239.596 52.55 239.796 53.152C239.997 53.754 240.456 54.055 241.172 54.055C241.918 54.055 242.391 53.754 242.591 53.152C242.792 52.55 242.892 51.3173 242.892 49.454V48.207C242.892 46.3437 242.792 45.1253 242.591 44.552ZM263.92 59.043C261.798 59.301 259.949 59.43 258.373 59.43C256.825 59.43 255.606 59.0287 254.718 58.226C253.858 57.3947 253.428 55.9757 253.428 53.969V43.993H251.364V38.661H253.772L254.159 34.705H260.652V38.661H264.479L264.178 43.993H260.609V52.55C260.609 53.152 260.895 53.453 261.469 53.453C261.526 53.453 262.415 53.41 264.135 53.324L263.92 59.043ZM273.224 59H266.129V38.618H273.224V59ZM266.688 36.984C266.086 36.468 265.785 35.6367 265.785 34.49C265.785 33.3433 266.086 32.4977 266.688 31.953C267.29 31.4083 268.279 31.136 269.655 31.136C271.031 31.136 272.02 31.4083 272.622 31.953C273.224 32.4977 273.525 33.3433 273.525 34.49C273.525 35.608 273.224 36.4393 272.622 36.984C272.02 37.5 271.031 37.758 269.655 37.758C268.279 37.758 267.29 37.5 266.688 36.984ZM282.745 31.136C284.522 31.136 286.386 31.222 288.335 31.394L287.733 37.672C286.443 37.5287 285.497 37.457 284.895 37.457C284.322 37.457 284.035 37.715 284.035 38.231V39.005H287.561L287.217 44.337H284.121V59H276.94V44.337H275.048V39.005H276.94V36.855C276.94 33.0423 278.875 31.136 282.745 31.136ZM295.816 59H288.721V38.618H295.816V59ZM289.28 36.984C288.678 36.468 288.377 35.6367 288.377 34.49C288.377 33.3433 288.678 32.4977 289.28 31.953C289.882 31.4083 290.871 31.136 292.247 31.136C293.623 31.136 294.612 31.4083 295.214 31.953C295.816 32.4977 296.117 33.3433 296.117 34.49C296.117 35.608 295.816 36.4393 295.214 36.984C294.612 37.5 293.623 37.758 292.247 37.758C290.871 37.758 289.882 37.5 289.28 36.984ZM307.53 44.165C306.699 44.165 306.14 44.552 305.853 45.326C305.566 46.0713 305.423 47.2467 305.423 48.852C305.423 50.4573 305.552 51.6183 305.81 52.335C306.097 53.0517 306.67 53.41 307.53 53.41C308.419 53.41 309.565 53.2523 310.97 52.937L311.744 58.441C309.766 59.1003 308.003 59.43 306.455 59.43C303.732 59.43 301.668 58.5127 300.263 56.678C298.887 54.8433 298.199 52.2777 298.199 48.981C298.199 45.6843 298.916 43.0183 300.349 40.983C301.782 38.919 303.861 37.887 306.584 37.887C308.619 37.887 310.454 38.231 312.088 38.919L311.314 45.24C309.651 44.5233 308.39 44.165 307.53 44.165ZM328.889 43.778L328.674 52.679C328.674 53.2237 328.803 53.5963 329.061 53.797C329.348 53.969 329.821 54.055 330.48 54.055L329.835 59.258C328.173 59.3727 327.255 59.43 327.083 59.43C324.962 59.43 323.615 58.699 323.041 57.237H322.826C321.766 58.699 320.132 59.43 317.924 59.43C316.233 59.43 314.929 58.8853 314.011 57.796C313.123 56.7067 312.678 55.216 312.678 53.324C312.678 50.9447 313.409 49.2963 314.871 48.379C316.362 47.4617 318.698 46.8597 321.88 46.573V45.541C321.88 44.7383 321.479 44.337 320.676 44.337C319.3 44.337 317.15 44.7527 314.226 45.584L313.151 39.306C316.821 38.36 319.874 37.887 322.31 37.887C324.747 37.887 326.453 38.36 327.427 39.306C328.402 40.252 328.889 41.7427 328.889 43.778ZM320.59 54.399C321.651 54.399 322.181 53.84 322.181 52.722V50.615C321.121 50.7583 320.361 50.9877 319.902 51.303C319.472 51.5897 319.257 52.0913 319.257 52.808C319.257 53.8687 319.702 54.399 320.59 54.399ZM343.705 59.043C341.583 59.301 339.734 59.43 338.158 59.43C336.61 59.43 335.391 59.0287 334.503 58.226C333.643 57.3947 333.213 55.9757 333.213 53.969V43.993H331.149V38.661H333.557L333.944 34.705H340.437V38.661H344.264L343.963 43.993H340.394V52.55C340.394 53.152 340.68 53.453 341.254 53.453C341.311 53.453 342.2 53.41 343.92 53.324L343.705 59.043ZM353.009 59H345.914V38.618H353.009V59ZM346.473 36.984C345.871 36.468 345.57 35.6367 345.57 34.49C345.57 33.3433 345.871 32.4977 346.473 31.953C347.075 31.4083 348.064 31.136 349.44 31.136C350.816 31.136 351.805 31.4083 352.407 31.953C353.009 32.4977 353.31 33.3433 353.31 34.49C353.31 35.608 353.009 36.4393 352.407 36.984C351.805 37.5 350.816 37.758 349.44 37.758C348.064 37.758 347.075 37.5 346.473 36.984ZM355.392 48.637C355.392 44.853 356.109 42.1153 357.542 40.424C359.004 38.7327 361.269 37.887 364.336 37.887C367.432 37.887 369.683 38.7183 371.087 40.381C372.492 42.0437 373.194 44.7813 373.194 48.594C373.194 52.378 372.506 55.13 371.13 56.85C369.754 58.57 367.504 59.43 364.379 59.43C361.255 59.43 358.976 58.57 357.542 56.85C356.109 55.13 355.392 52.3923 355.392 48.637ZM365.712 44.552C365.54 43.9787 365.082 43.692 364.336 43.692C363.591 43.692 363.118 43.9787 362.917 44.552C362.717 45.1253 362.616 46.3293 362.616 48.164V49.196C362.616 51.2313 362.717 52.55 362.917 53.152C363.118 53.754 363.577 54.055 364.293 54.055C365.039 54.055 365.512 53.754 365.712 53.152C365.913 52.55 366.013 51.3173 366.013 49.454V48.207C366.013 46.3437 365.913 45.1253 365.712 44.552ZM382.612 39.908C384.188 38.5607 385.923 37.887 387.815 37.887C389.707 37.887 391.025 38.3313 391.771 39.22C392.545 40.08 392.932 41.3843 392.932 43.133V59H385.622V45.584C385.622 44.8673 385.306 44.509 384.676 44.509C383.873 44.509 383.199 44.7097 382.655 45.111V59H375.431V38.403H382.01L382.44 39.908H382.612ZM430.976 59H424.225V45.068H423.838L421.301 59H414.378L411.97 45.068H411.54V59H404.875L405.778 32.297H415.453L417.861 46.745H418.205L420.527 32.297H430.073L430.976 59ZM449.407 43.778L449.192 52.679C449.192 53.2237 449.321 53.5963 449.579 53.797C449.865 53.969 450.338 54.055 450.998 54.055L450.353 59.258C448.69 59.3727 447.773 59.43 447.601 59.43C445.479 59.43 444.132 58.699 443.559 57.237H443.344C442.283 58.699 440.649 59.43 438.442 59.43C436.75 59.43 435.446 58.8853 434.529 57.796C433.64 56.7067 433.196 55.216 433.196 53.324C433.196 50.9447 433.927 49.2963 435.389 48.379C436.879 47.4617 439.216 46.8597 442.398 46.573V45.541C442.398 44.7383 441.996 44.337 441.194 44.337C439.818 44.337 437.668 44.7527 434.744 45.584L433.669 39.306C437.338 38.36 440.391 37.887 442.828 37.887C445.264 37.887 446.97 38.36 447.945 39.306C448.919 40.252 449.407 41.7427 449.407 43.778ZM441.108 54.399C442.168 54.399 442.699 53.84 442.699 52.722V50.615C441.638 50.7583 440.878 50.9877 440.42 51.303C439.99 51.5897 439.775 52.0913 439.775 52.808C439.775 53.8687 440.219 54.399 441.108 54.399ZM459.793 39.908C461.37 38.5607 463.104 37.887 464.996 37.887C466.888 37.887 468.207 38.3313 468.952 39.22C469.726 40.08 470.113 41.3843 470.113 43.133V59H462.803V45.584C462.803 44.8673 462.488 44.509 461.857 44.509C461.055 44.509 460.381 44.7097 459.836 45.111V59H452.612V38.403H459.191L459.621 39.908H459.793ZM488.208 43.778L487.993 52.679C487.993 53.2237 488.122 53.5963 488.38 53.797C488.666 53.969 489.139 54.055 489.799 54.055L489.154 59.258C487.491 59.3727 486.574 59.43 486.402 59.43C484.28 59.43 482.933 58.699 482.36 57.237H482.145C481.084 58.699 479.45 59.43 477.243 59.43C475.551 59.43 474.247 58.8853 473.33 57.796C472.441 56.7067 471.997 55.216 471.997 53.324C471.997 50.9447 472.728 49.2963 474.19 48.379C475.68 47.4617 478.017 46.8597 481.199 46.573V45.541C481.199 44.7383 480.797 44.337 479.995 44.337C478.619 44.337 476.469 44.7527 473.545 45.584L472.47 39.306C476.139 38.36 479.192 37.887 481.629 37.887C484.065 37.887 485.771 38.36 486.746 39.306C487.72 40.252 488.208 41.7427 488.208 43.778ZM479.909 54.399C480.969 54.399 481.5 53.84 481.5 52.722V50.615C480.439 50.7583 479.679 50.9877 479.221 51.303C478.791 51.5897 478.576 52.0913 478.576 52.808C478.576 53.8687 479.02 54.399 479.909 54.399ZM497.648 60.892H502.077C502.593 60.892 502.851 60.6627 502.851 60.204V60.032C502.851 59.602 502.593 59.387 502.077 59.387H497.648C497.189 59.387 496.96 59.6163 496.96 60.075V60.247C496.96 60.677 497.189 60.892 497.648 60.892ZM499.368 37.887H509.516V42.703H506.42V42.918C507.337 43.7207 507.796 44.767 507.796 46.057C507.796 50.6437 505.202 52.937 500.013 52.937H497.949C497.433 52.937 497.175 53.1807 497.175 53.668C497.175 54.1267 497.419 54.356 497.906 54.356H503.754C507.051 54.356 508.699 55.7893 508.699 58.656C508.699 61.0067 507.911 62.698 506.334 63.73C504.757 64.7907 502.579 65.321 499.798 65.321C497.017 65.321 494.91 65.02 493.477 64.418C492.072 63.8447 491.37 62.7553 491.37 61.15C491.37 60.2613 491.929 59.516 493.047 58.914V58.742C491.642 57.968 490.94 56.85 490.94 55.388C490.94 53.668 492.044 52.3637 494.251 51.475C493.219 50.7297 492.445 49.8697 491.929 48.895C491.442 47.8917 491.198 46.573 491.198 44.939C491.198 42.6743 491.929 40.94 493.391 39.736C494.882 38.5033 496.874 37.887 499.368 37.887ZM501.26 46.143C501.26 45.2257 501.145 44.5663 500.916 44.165C500.715 43.735 500.328 43.52 499.755 43.52C499.182 43.52 498.78 43.735 498.551 44.165C498.35 44.5663 498.25 45.197 498.25 46.057C498.25 47.8057 498.766 48.68 499.798 48.68C500.773 48.68 501.26 47.8343 501.26 46.143ZM519.371 44.036C518.626 44.036 518.139 44.294 517.909 44.81C517.68 45.2973 517.565 46.057 517.565 47.089H521.306V46.057C521.306 44.7097 520.661 44.036 519.371 44.036ZM519.543 37.887C522.496 37.887 524.603 38.6037 525.864 40.037C527.154 41.4417 527.799 43.4627 527.799 46.1C527.799 46.444 527.699 47.992 527.498 50.744H517.694C517.694 52.894 518.683 53.969 520.661 53.969C521.607 53.969 523.456 53.6393 526.208 52.98L526.81 58.312C524.402 59.0573 521.994 59.43 519.586 59.43C516.634 59.43 514.369 58.4697 512.792 56.549C511.216 54.5997 510.427 51.9623 510.427 48.637C510.427 41.4703 513.466 37.887 519.543 37.887ZM536.932 47.433V59H529.794V38.403H536.072L536.502 39.65H536.674C537.333 38.9047 537.993 38.4317 538.652 38.231C539.34 38.0017 540.444 37.887 541.963 37.887L541.662 44.767H539.684C538.566 44.767 537.821 44.939 537.448 45.283C537.104 45.627 536.932 46.3437 536.932 47.433Z" fill="#9C50FF"/>
<path d="M78.2269 49.5211C74.542 47.6843 68.0338 45.279 62.8402 31.4185C58.8954 20.8911 48.3188 15.2156 37.5407 16.8587L36.4827 14.0352C35.5856 11.6411 32.9081 10.4229 30.5032 11.3149C28.0984 12.207 26.8759 14.8719 27.773 17.266L28.831 20.0895C19.6023 25.8678 15.3413 37.0471 19.286 47.5746C24.4797 61.4351 21.1425 67.4924 19.5655 71.2811C19.0759 72.458 19.1051 73.637 19.4952 74.6574C20.3428 76.8739 22.8874 78.3374 25.491 77.3716L77.7549 57.9848C80.3586 57.019 81.3205 54.2547 80.5015 52.0277C80.125 51.0022 79.3709 50.0906 78.2269 49.5211ZM28.831 66.3884C30.3006 61.5269 30.1541 56.7638 25.8491 45.2296C25.839 45.2025 56.3359 33.9207 25.8115 45.154C21.4605 66.0992 28.0589 71.9072 36.4827 68.7825C100.045 59.7369 53.1741 25.4578 56.3147 33.8391C56.3248 33.8662 56.3258 33.8936 56.3359 33.9207C60.6713 45.4453 62.3096 49.3113 66.6188 52.0277L28.831 66.3884ZM56.4968 80.6851C61.3064 78.901 63.7533 73.572 61.9587 68.7825L44.5365 75.2451C46.3311 80.0347 51.6871 82.4692 56.4968 80.6851Z" fill="#9C50FF"/>
<path d="M39.6344 25.155L46.9249 52.8581L44.5474 54.3662L33.6318 29.1873L39.6344 25.155ZM50.3644 58.07C50.4969 58.4559 50.5483 58.8421 50.5188 59.2291C50.4893 59.6161 50.3866 59.974 50.2109 60.3029C50.0569 60.6425 49.8351 60.9423 49.5455 61.2023C49.2721 61.4567 48.9415 61.6498 48.5538 61.7815C48.1661 61.9133 47.7698 61.9672 47.3647 61.9434C46.9758 61.9141 46.608 61.8146 46.2613 61.6452C45.9362 61.4866 45.6349 61.2658 45.3575 60.9831C45.0963 60.695 44.8995 60.3581 44.767 59.9723C44.6346 59.5866 44.5832 59.2002 44.6127 58.8132C44.6584 58.4207 44.7582 58.0549 44.9123 57.7153C45.0824 57.3703 45.3123 57.0678 45.6019 56.8079C45.9021 56.5264 46.2461 56.3197 46.6338 56.188C47.0215 56.0562 47.4045 56.0157 47.7827 56.0666C48.1716 56.0961 48.5313 56.1982 48.8619 56.3731C49.2087 56.5423 49.5127 56.771 49.7739 57.0591C50.0352 57.3472 50.232 57.6843 50.3644 58.07Z" fill="white"/>
</svg>
